# xmcd
#
# Track frame offsets: 
#        150
#        12130
#        33505
#        50235
#        70786
#        87166
#        98214
#        112829
#        130349
#        140443
#        156571
#        170982
#        186057
#        204538
#        219388
#        234508
#        252058
#        267925
#
# Disc length: 3812 seconds
#
# Revision: 0
# Processed by: cddbd v1.5.2PL0 Copyright (c) Steve Scherf et al.
# Submitted via: ExactAudioCopy v1.0b3
#
DISCID=030ee212
DTITLE=Teddy Wender and Jazzmatik - The Blue Album
DYEAR=2013
DGENRE=Blues
TTITLE0=I'm Ready
TTITLE1=I'm a Man
TTITLE2=Dog House
TTITLE3=You Don't Love Me
TTITLE4=Parchman Farm
TTITLE5=Another Man Done Gone
TTITLE6=She Caught the Katy
TTITLE7=Sweet Talking
TTITLE8=Hallelujah I Love Her So
TTITLE9=You Got Me
TTITLE10=Come Back Baby
TTITLE11=Personal Manager
TTITLE12=Big Red Dog
TTITLE13=Play With Fire
TTITLE14=Rollin
TTITLE15=Maggie's Farm
TTITLE16=Bad Things
TTITLE17=Yaa Yaa
EXTD=
EXTT0=
EXTT1=
EXTT2=
EXTT3=
EXTT4=
EXTT5=
EXTT6=
EXTT7=
EXTT8=
EXTT9=
EXTT10=
EXTT11=
EXTT12=
EXTT13=
EXTT14=
EXTT15=
EXTT16=
EXTT17=
PLAYORDER=
